<?xml version="1.0" encoding="UTF-8" standalone="no"?>
<svg
   xmlns:dc="http://purl.org/dc/elements/1.1/"
   xmlns:cc="http://creativecommons.org/ns#"
   xmlns:rdf="http://www.w3.org/1999/02/22-rdf-syntax-ns#"
   xmlns:svg="http://www.w3.org/2000/svg"
   xmlns="http://www.w3.org/2000/svg"
   xmlns:sodipodi="http://sodipodi.sourceforge.net/DTD/sodipodi-0.dtd"
   xmlns:inkscape="http://www.inkscape.org/namespaces/inkscape"
   height="512px"
   id="Layer_1"
   style="enable-background:new 0 0 512 512;"
   version="1.1"
   viewBox="0 0 512 512"
   width="512px"
   xml:space="preserve"
   inkscape:version="0.48.5 r10040"
   sodipodi:docname="person.svg"><metadata
     id="metadata3033"><rdf:RDF><cc:Work
         rdf:about=""><dc:format>image/svg+xml</dc:format><dc:type
           rdf:resource="http://purl.org/dc/dcmitype/StillImage" /></cc:Work></rdf:RDF></metadata><defs
     id="defs3031" /><sodipodi:namedview
     pagecolor="#ffffff"
     bordercolor="#666666"
     borderopacity="1"
     objecttolerance="10"
     gridtolerance="10"
     guidetolerance="10"
     inkscape:pageopacity="0"
     inkscape:pageshadow="2"
     inkscape:window-width="1680"
     inkscape:window-height="994"
     id="namedview3029"
     showgrid="false"
     showguides="true"
     inkscape:guide-bbox="true"
     inkscape:zoom="1.0951869"
     inkscape:cx="195.69301"
     inkscape:cy="279.40072"
     inkscape:window-x="0"
     inkscape:window-y="27"
     inkscape:window-maximized="1"
     inkscape:current-layer="Layer_1"><sodipodi:guide
       orientation="1,0"
       position="89.482446,507.67592"
       id="guide3035" /><sodipodi:guide
       orientation="1,0"
       position="420.93273,219.14068"
       id="guide3037" /><sodipodi:guide
       orientation="0,1"
       position="420.93273,420.01964"
       id="guide3039" /><sodipodi:guide
       orientation="0,1"
       position="206.35748,90.395532"
       id="guide3041" /></sodipodi:namedview><path
     d="m 422.98944,421.60447 c 0,0 0,-22.66166 -1.92223,-34.50753 -1.57273,-9.35651 -14.76622,-21.71742 -70.86041,-41.97556 -55.22044,-19.91479 -51.81284,-10.21492 -51.81284,-46.86843 0,-23.77758 12.31974,-9.95739 20.18341,-55.10904 3.05809,-17.76879 5.50457,-5.92293 12.145,-34.42168 3.49497,-14.93609 -2.3591,-16.05201 -1.66011,-23.17669 0.699,-7.12469 1.39799,-13.47682 2.70861,-28.06956 1.57273,-18.02631 -15.46522,-65.49562 -76.53973,-65.49562 -61.07451,0 -78.11246,47.46931 -76.45235,65.58146 1.31061,14.5069 2.00961,20.94487 2.7086,28.06955 0.69899,7.1247 -5.15507,8.24061 -1.66011,23.1767 6.64043,28.41291 9.0869,16.56705 12.145,34.42169 7.86367,45.15163 20.18342,31.33145 20.18342,55.10903 0,36.73935 3.4076,27.03947 -51.81285,46.86842 -56.09418,20.17231 -69.375044,32.61905 -70.860404,41.97558 -2.009604,11.76002 -2.009604,34.42168 -2.009604,34.42168 h 167.758298 167.7583 z"
     id="path3027"
     inkscape:connector-curvature="0" /></svg>